{"title":"Nina.2016.WEBRip.480p.x264.AAC-VYTO [P2PDL]","uid":14393275,"size":352660140,"categoryP":"video","categoryS":"movies","magnet":"?xt=urn:btih:b62879049efe894362ad9dc906dda409b3d38af9&amp;dn=Nina.2016.WEBRip.480p.x264.AAC-VYTO+%5BP2PDL%5D&amp;tr=udp%3A%2F%2Ftracker.leechers-paradise.org%3A6969&amp;tr=udp%3A%2F%2Fzer0day.ch%3A1337&amp;tr=udp%3A%2F%2Fopen.demonii.com%3A1337&amp;tr=udp%3A%2F%2Ftracker.coppersurfer.tk%3A6969&amp;tr=udp%3A%2F%2Fexodus.desync.com%3A6969","seeders":2,"leechers":0,"uploader":"VYTOP2PDL","files":6,"time":1461325467,"description":"Nina.2016.WEBRip.480p.x264.AAC-VYTO\r\n\r\n\r\nGenre: Biography, Drama, Music  \nhttp://www.imdb.com/title/tt0493076/\r\n\r\n\r\nFormat                                   : MPEG-4\r\nFile size                                : 336 MiB\r\nDuration                                 : 1h 30mn\r\nOverall bit rate                         : 520 Kbps\r\n\r\nVideo\r\nFormat                                   : AVC\r\nBit rate                                 : 477 Kbps\r\nWidth                                    : 720 pixels\r\nHeight                                   : 304 pixels\r\nDisplay aspect ratio                     : 2.35:1\r\nFrame rate mode                          : Constant\r\nFrame rate                               : 23.976 fps\r\nBit depth                                : 8 bits\r\nStream size                              : 308 MiB (92%)\r\nWriting library                          : x264 \r\n\r\nAudio\r\nFormat                                   : AAC\r\nBit rate mode                            : Variable\r\nBit rate                                 : 39.9 Kbps\r\nChannel(s)                               : 2 channels\r\nChannel positions                        : Front: L R\r\nSampling rate                            : 48.0 KHz\r\nStream size                              : 25.8 MiB (8%)\r\nLanguage                                 : English\r\n\r\nSubtitle                                 : Yes (English)\r\n\r\nScreen Shots: (Click links to view)\r\n\r\nEncoder Notes: Looking For Early Access To Anything You Can Provide WEBDL, DVDScr, DVDR, BluRay,\r\nDirect Audio, Music Releases and Seedboxes. If You Got anything to offer please contact us.\r\n\r\nSupport us by donating BC - 1FgwdzPsd1y25Gea8wP1qni35uGCtmkRCD\r\n\r\nFind us and join us!","torrent":{"xt":"urn:btih:b62879049efe894362ad9dc906dda409b3d38af9","amp;dn":"Nina.2016.WEBRip.480p.x264.AAC-VYTO+%5BP2PDL%5D","amp;tr":["udp%3A%2F%2Ftracker.leechers-paradise.org%3A6969","udp%3A%2F%2Fzer0day.ch%3A1337","udp%3A%2F%2Fopen.demonii.com%3A1337","udp%3A%2F%2Ftracker.coppersurfer.tk%3A6969","udp%3A%2F%2Fexodus.desync.com%3A6969"],"infoHash":"b62879049efe894362ad9dc906dda409b3d38af9","infoHashBuffer":{"type":"Buffer","data":[182,40,121,4,158,254,137,67,98,173,157,201,6,221,164,9,179,211,138,249]},"announce":[],"urlList":[]}}